<svg width="78" height="48" viewBox="0 0 78 48" fill="none" xmlns="http://www.w3.org/2000/svg">
<path d="M2.51825 15C2.47558 15 2.44892 14.9733 2.43825 14.92L0.55025 3.928C0.539583 3.88533 0.555583 3.864 0.59825 3.864H2.39025C2.43292 3.864 2.45958 3.88533 2.47025 3.928L3.49425 11.16L4.55025 3.928C4.56092 3.88533 4.59292 3.864 4.64625 3.864H6.08625C6.12892 3.864 6.15558 3.88533 6.16625 3.928L7.20625 11.16L8.24625 3.928C8.25692 3.88533 8.28358 3.864 8.32625 3.864H10.1023C10.1556 3.864 10.1769 3.88533 10.1663 3.928L8.26225 14.92C8.25158 14.9413 8.23558 14.9627 8.21425 14.984C8.19292 14.9947 8.18225 15 8.18225 15H6.24625C6.21425 15 6.18758 14.9733 6.16625 14.92L5.35025 9.176L4.53425 14.92C4.52358 14.9733 4.49692 15 4.45425 15H2.51825ZM11.1728 15C11.1301 15 11.1088 14.9733 11.1088 14.92L11.1248 3.928C11.1248 3.88533 11.1514 3.864 11.2048 3.864H12.9808C13.0341 3.864 13.0608 3.88533 13.0608 3.928L13.0448 8.28H15.4448V3.928C15.4448 3.88533 15.4661 3.864 15.5088 3.864H17.2848C17.3381 3.864 17.3648 3.88533 17.3648 3.928L17.3968 14.92C17.3968 14.9733 17.3701 15 17.3168 15H15.5248C15.4714 15 15.4448 14.9733 15.4448 14.92V10.216H13.0448V14.92C13.0448 14.9733 13.0234 15 12.9808 15H11.1728ZM21.6625 15.16C21.0865 15.16 20.5585 15.016 20.0785 14.728C19.6092 14.4293 19.2305 14.04 18.9425 13.56C18.6545 13.0693 18.5105 12.5307 18.5105 11.944L18.5265 6.872C18.5265 6.28533 18.6652 5.752 18.9425 5.272C19.2305 4.792 19.6145 4.408 20.0945 4.12C20.5745 3.832 21.0972 3.688 21.6625 3.688C22.2385 3.688 22.7612 3.832 23.2305 4.12C23.6998 4.408 24.0732 4.792 24.3505 5.272C24.6385 5.752 24.7825 6.28533 24.7825 6.872L24.7985 11.944C24.7985 12.5307 24.6545 13.0693 24.3665 13.56C24.0892 14.04 23.7105 14.4293 23.2305 14.728C22.7612 15.016 22.2385 15.16 21.6625 15.16ZM21.6625 13.224C21.9825 13.224 22.2598 13.096 22.4945 12.84C22.7398 12.5733 22.8625 12.2747 22.8625 11.944L22.8465 6.872C22.8465 6.52 22.7345 6.22133 22.5105 5.976C22.2865 5.73067 22.0038 5.608 21.6625 5.608C21.3318 5.608 21.0492 5.73067 20.8145 5.976C20.5798 6.21067 20.4625 6.50933 20.4625 6.872V11.944C20.4625 12.296 20.5798 12.6 20.8145 12.856C21.0492 13.1013 21.3318 13.224 21.6625 13.224ZM26.015 7.624V6.632C26.2817 6.632 26.5057 6.53067 26.687 6.328C26.879 6.12533 26.975 5.88533 26.975 5.608H26.079C26.0363 5.608 26.015 5.58667 26.015 5.544V3.752C26.015 3.70933 26.0363 3.688 26.079 3.688H27.887C27.9297 3.688 27.951 3.70933 27.951 3.752V5.608C27.951 5.98133 27.8603 6.32267 27.679 6.632C27.4977 6.94133 27.2577 7.18667 26.959 7.368C26.671 7.53867 26.3563 7.624 26.015 7.624ZM31.985 15.16C31.409 15.16 30.881 15.016 30.401 14.728C29.9317 14.4293 29.553 14.04 29.265 13.56C28.9877 13.0693 28.849 12.5307 28.849 11.944V11.208C28.849 11.1547 28.8757 11.128 28.929 11.128H30.721C30.7637 11.128 30.785 11.1547 30.785 11.208V11.944C30.785 12.296 30.9023 12.6 31.137 12.856C31.3717 13.1013 31.6543 13.224 31.985 13.224C32.3157 13.224 32.5983 13.096 32.833 12.84C33.0677 12.584 33.185 12.2853 33.185 11.944C33.185 11.5493 32.929 11.208 32.417 10.92C32.2463 10.824 31.9797 10.6747 31.617 10.472C31.2543 10.2693 30.913 10.0773 30.593 9.896C30.0063 9.55467 29.569 9.128 29.281 8.616C29.0037 8.09333 28.865 7.50667 28.865 6.856C28.865 6.25867 29.009 5.72533 29.297 5.256C29.585 4.776 29.9637 4.39733 30.433 4.12C30.913 3.84267 31.4303 3.704 31.985 3.704C32.5503 3.704 33.0677 3.848 33.537 4.136C34.017 4.41333 34.3957 4.792 34.673 5.272C34.961 5.74133 35.105 6.26933 35.105 6.856V8.168C35.105 8.21067 35.0837 8.232 35.041 8.232H33.249C33.2063 8.232 33.185 8.21067 33.185 8.168L33.169 6.856C33.169 6.48267 33.0517 6.17867 32.817 5.944C32.5823 5.70933 32.305 5.592 31.985 5.592C31.6543 5.592 31.3717 5.72 31.137 5.976C30.9023 6.22133 30.785 6.51467 30.785 6.856C30.785 7.208 30.8597 7.50133 31.009 7.736C31.1583 7.97067 31.4303 8.19467 31.825 8.408C31.8783 8.44 31.9797 8.49867 32.129 8.584C32.289 8.65867 32.4597 8.74933 32.641 8.856C32.8223 8.952 32.9823 9.03733 33.121 9.112C33.2703 9.18667 33.361 9.23467 33.393 9.256C33.9263 9.55467 34.3477 9.92267 34.657 10.36C34.9663 10.7867 35.121 11.3147 35.121 11.944C35.121 12.552 34.977 13.1013 34.689 13.592C34.4117 14.072 34.033 14.456 33.553 14.744C33.0837 15.0213 32.561 15.16 31.985 15.16Z" fill="black"/>
<path d="M30.1181 29C30.0754 29 30.0541 28.9733 30.0541 28.92L30.0701 17.944C30.0701 17.8907 30.0967 17.864 30.1501 17.864H31.9261C31.9794 17.864 32.0061 17.8907 32.0061 17.944L31.9901 27.032H35.2861C35.3394 27.032 35.3661 27.0587 35.3661 27.112V28.92C35.3661 28.9733 35.3394 29 35.2861 29H30.1181ZM36.4774 29C36.4348 29 36.4134 28.9733 36.4134 28.92L36.4294 17.928C36.4294 17.8853 36.4508 17.864 36.4934 17.864H41.6294C41.6721 17.864 41.6934 17.8907 41.6934 17.944V19.736C41.6934 19.7787 41.6721 19.8 41.6294 19.8H38.3494V22.296H41.6294C41.6721 22.296 41.6934 22.3173 41.6934 22.36L41.7094 24.168C41.7094 24.2107 41.6881 24.232 41.6454 24.232H38.3494V27.032H41.6454C41.6881 27.032 41.7094 27.0587 41.7094 27.112V28.936C41.7094 28.9787 41.6881 29 41.6454 29H36.4774ZM43.1962 29C43.1535 29 43.1322 28.9733 43.1322 28.92L43.1482 17.928C43.1482 17.8853 43.1695 17.864 43.2122 17.864H48.3482C48.3909 17.864 48.4122 17.8907 48.4122 17.944V19.736C48.4122 19.7787 48.3909 19.8 48.3482 19.8H45.0682V22.296H48.3482C48.3909 22.296 48.4122 22.3173 48.4122 22.36L48.4282 24.168C48.4282 24.2107 48.4069 24.232 48.3642 24.232H45.0682V27.032H48.3642C48.4069 27.032 48.4282 27.0587 48.4282 27.112V28.936C48.4282 28.9787 48.4069 29 48.3642 29H43.1962ZM51.9124 29.16C51.3151 29.16 50.7764 29.0213 50.2964 28.744C49.8271 28.456 49.4538 28.0667 49.1764 27.576C48.9098 27.0747 48.7764 26.5147 48.7764 25.896V25.16C48.7764 25.1173 48.7978 25.096 48.8404 25.096H50.6484C50.6911 25.096 50.7124 25.1227 50.7124 25.176V25.896C50.7124 26.2907 50.8244 26.6107 51.0484 26.856C51.2724 27.1013 51.5604 27.224 51.9124 27.224C52.2324 27.224 52.5098 27.0907 52.7444 26.824C52.9791 26.5573 53.0964 26.248 53.0964 25.896V17.944C53.0964 17.9013 53.1178 17.88 53.1604 17.88H54.9524C54.9951 17.88 55.0164 17.9067 55.0164 17.96L55.0324 25.896C55.0324 26.4827 54.8884 27.0267 54.6004 27.528C54.3231 28.0187 53.9498 28.4133 53.4804 28.712C53.0111 29.0107 52.4884 29.16 51.9124 29.16ZM59.1856 29.16C58.6202 29.16 58.0976 29.016 57.6176 28.728C57.1376 28.4293 56.7536 28.0347 56.4656 27.544C56.1882 27.0533 56.0496 26.5147 56.0496 25.928L56.0816 17.928C56.0816 17.8853 56.1029 17.864 56.1456 17.864H57.9376C57.9802 17.864 58.0016 17.8853 58.0016 17.928V25.928C58.0016 26.2907 58.1136 26.6 58.3376 26.856C58.5722 27.1013 58.8549 27.224 59.1856 27.224C59.5269 27.224 59.8096 27.1013 60.0336 26.856C60.2682 26.6 60.3856 26.2907 60.3856 25.928V17.928C60.3856 17.8853 60.4069 17.864 60.4496 17.864H62.2416C62.2842 17.864 62.3056 17.8853 62.3056 17.928L62.3376 25.928C62.3376 26.5253 62.1936 27.0693 61.9056 27.56C61.6282 28.0507 61.2496 28.44 60.7696 28.728C60.3002 29.016 59.7722 29.16 59.1856 29.16ZM63.7449 29C63.6596 29 63.6169 28.9627 63.6169 28.888L63.6009 17.992C63.6009 17.9067 63.6436 17.864 63.7289 17.864H65.1689L67.8729 24.168L67.7929 17.992C67.7929 17.9067 67.8409 17.864 67.9369 17.864H69.5209C69.5849 17.864 69.6169 17.9067 69.6169 17.992L69.6329 28.904C69.6329 28.968 69.6063 29 69.5529 29H68.1449L65.3769 23.112L65.4889 28.872C65.4889 28.9573 65.4409 29 65.3449 29H63.7449ZM73.9508 29.16C73.3748 29.16 72.8521 29.016 72.3828 28.728C71.9135 28.44 71.5348 28.056 71.2468 27.576C70.9695 27.0853 70.8308 26.5413 70.8308 25.944V20.872C70.8308 20.296 70.9695 19.768 71.2468 19.288C71.5348 18.7973 71.9135 18.408 72.3828 18.12C72.8628 17.832 73.3855 17.688 73.9508 17.688C74.5375 17.688 75.0655 17.832 75.5348 18.12C76.0148 18.3973 76.3935 18.776 76.6708 19.256C76.9481 19.736 77.0868 20.2747 77.0868 20.872V21.608C77.0868 21.6507 77.0601 21.672 77.0068 21.672H75.2148C75.1721 21.672 75.1508 21.6507 75.1508 21.608V21C75.1508 20.5947 75.0335 20.2587 74.7988 19.992C74.5748 19.7253 74.2921 19.592 73.9508 19.592C73.6415 19.592 73.3641 19.72 73.1188 19.976C72.8841 20.232 72.7668 20.5307 72.7668 20.872V25.944C72.7668 26.296 72.8841 26.6 73.1188 26.856C73.3535 27.1013 73.6308 27.224 73.9508 27.224C74.2921 27.224 74.5748 27.1013 74.7988 26.856C75.0335 26.6107 75.1508 26.3067 75.1508 25.944V25.16H74.0308C73.9775 25.16 73.9508 25.1333 73.9508 25.08V23.288C73.9508 23.2347 73.9775 23.208 74.0308 23.208H77.0228C77.0655 23.208 77.0868 23.2347 77.0868 23.288V25.944C77.0868 26.5413 76.9428 27.0853 76.6548 27.576C76.3775 28.056 76.0041 28.44 75.5348 28.728C75.0655 29.016 74.5375 29.16 73.9508 29.16Z" fill="black"/>
<path d="M1.079 43C1.03633 43 1.015 42.9733 1.015 42.92L1.031 31.928C1.031 31.8853 1.05767 31.864 1.111 31.864H2.887C2.94033 31.864 2.967 31.8853 2.967 31.928L2.951 36.28H5.351V31.928C5.351 31.8853 5.37233 31.864 5.415 31.864H7.191C7.24433 31.864 7.271 31.8853 7.271 31.928L7.303 42.92C7.303 42.9733 7.27633 43 7.223 43H5.431C5.37767 43 5.351 42.9733 5.351 42.92V38.216H2.951V42.92C2.951 42.9733 2.92967 43 2.887 43H1.079ZM10.0968 43C10.0648 43 10.0488 42.9787 10.0488 42.936L10.0648 38.392L7.92075 31.928C7.91008 31.8853 7.92608 31.864 7.96875 31.864H9.74475C9.79808 31.864 9.83008 31.8853 9.84075 31.928L11.0248 36.232L12.2248 31.928C12.2354 31.8853 12.2621 31.864 12.3048 31.864H14.0968C14.1394 31.864 14.1554 31.8853 14.1448 31.928L11.9848 38.328L12.0008 42.936C12.0008 42.9787 11.9794 43 11.9368 43H10.0968ZM15.0946 43C15.052 43 15.0306 42.9733 15.0306 42.92L15.0466 31.928C15.0466 31.8853 15.068 31.864 15.1106 31.864H20.2466C20.2893 31.864 20.3106 31.8907 20.3106 31.944V33.736C20.3106 33.7787 20.2893 33.8 20.2466 33.8H16.9666V36.296H20.2466C20.2893 36.296 20.3106 36.3173 20.3106 36.36L20.3266 38.168C20.3266 38.2107 20.3053 38.232 20.2626 38.232H16.9666V41.032H20.2626C20.3053 41.032 20.3266 41.0587 20.3266 41.112V42.936C20.3266 42.9787 20.3053 43 20.2626 43H15.0946ZM24.4594 43.16C23.8834 43.16 23.3554 43.016 22.8754 42.728C22.406 42.4293 22.0274 42.04 21.7394 41.56C21.4514 41.0693 21.3074 40.5307 21.3074 39.944L21.3234 34.872C21.3234 34.2853 21.462 33.752 21.7394 33.272C22.0274 32.792 22.4114 32.408 22.8914 32.12C23.3714 31.832 23.894 31.688 24.4594 31.688C25.0354 31.688 25.558 31.832 26.0274 32.12C26.4967 32.408 26.87 32.792 27.1474 33.272C27.4354 33.752 27.5794 34.2853 27.5794 34.872L27.5954 39.944C27.5954 40.5307 27.4514 41.0693 27.1634 41.56C26.886 42.04 26.5074 42.4293 26.0274 42.728C25.558 43.016 25.0354 43.16 24.4594 43.16ZM24.4594 41.224C24.7794 41.224 25.0567 41.096 25.2914 40.84C25.5367 40.5733 25.6594 40.2747 25.6594 39.944L25.6434 34.872C25.6434 34.52 25.5314 34.2213 25.3074 33.976C25.0834 33.7307 24.8007 33.608 24.4594 33.608C24.1287 33.608 23.846 33.7307 23.6114 33.976C23.3767 34.2107 23.2594 34.5093 23.2594 34.872V39.944C23.2594 40.296 23.3767 40.6 23.6114 40.856C23.846 41.1013 24.1287 41.224 24.4594 41.224ZM28.8759 43C28.8332 43 28.8119 42.9733 28.8119 42.92L28.8439 31.944C28.8439 31.8907 28.8652 31.864 28.9079 31.864H30.6999C30.7425 31.864 30.7639 31.8907 30.7639 31.944V35.736L33.2759 31.928C33.3079 31.8853 33.3452 31.864 33.3879 31.864H35.2279C35.2705 31.864 35.2812 31.8853 35.2599 31.928L32.4919 36.344L35.5959 42.936C35.6172 42.9787 35.5905 43 35.5159 43H33.5639C33.5105 43 33.4785 42.9787 33.4679 42.936L31.3079 38.232L30.7479 39.112V42.92C30.7479 42.9733 30.7265 43 30.6839 43H28.8759ZM38.1359 40.056C38.0825 40.056 38.0559 40.0347 38.0559 39.992V39.128C38.0559 38.7013 38.1519 38.2747 38.3439 37.848C38.5465 37.4107 38.8185 37.0213 39.1599 36.68C39.4799 36.36 39.7145 36.1147 39.8639 35.944C40.0132 35.7627 40.1092 35.5973 40.1519 35.448C40.1945 35.2987 40.2159 35.1227 40.2159 34.92C40.2159 34.5467 40.1039 34.2373 39.8799 33.992C39.6559 33.736 39.3732 33.608 39.0319 33.608C38.6905 33.608 38.4025 33.736 38.1679 33.992C37.9439 34.2373 37.8319 34.5467 37.8319 34.92V36.088C37.8319 36.1307 37.8105 36.152 37.7679 36.152H35.9599C35.9172 36.152 35.8959 36.1307 35.8959 36.088V34.92C35.8959 34.3227 36.0345 33.7787 36.3119 33.288C36.5999 32.7973 36.9785 32.408 37.4479 32.12C37.9279 31.832 38.4559 31.688 39.0319 31.688C39.6079 31.688 40.1305 31.832 40.5999 32.12C41.0799 32.408 41.4585 32.7973 41.7359 33.288C42.0132 33.7787 42.1519 34.3227 42.1519 34.92C42.1519 35.272 42.1145 35.5867 42.0399 35.864C41.9652 36.1307 41.8265 36.4133 41.6239 36.712C41.4212 37 41.1225 37.3627 40.7279 37.8C40.4612 38.0667 40.2692 38.3067 40.1519 38.52C40.0452 38.7333 39.9919 38.968 39.9919 39.224V39.992C39.9919 40.0347 39.9652 40.056 39.9119 40.056H38.1359ZM38.1359 43C38.0825 43 38.0559 42.9733 38.0559 42.92V41.144C38.0559 41.1013 38.0825 41.08 38.1359 41.08H39.9119C39.9652 41.08 39.9919 41.1013 39.9919 41.144V42.92C39.9919 42.9733 39.9652 43 39.9119 43H38.1359Z" fill="black"/>
</svg>
