<svg width="52" height="25" viewBox="0 0 52 25" fill="none" xmlns="http://www.w3.org/2000/svg">
<path fill-rule="evenodd" clip-rule="evenodd" d="M42.6 18.2C45.6928 18.2 48.2 15.6928 48.2 12.6C48.2 9.50721 45.6928 7 42.6 7C39.5072 7 37 9.50721 37 12.6C37 15.6928 39.5072 18.2 42.6 18.2ZM42.5999 16.6C44.809 16.6 46.5999 14.8091 46.5999 12.6C46.5999 10.3909 44.809 8.60001 42.5999 8.60001C40.3907 8.60001 38.5999 10.3909 38.5999 12.6C38.5999 14.8091 40.3907 16.6 42.5999 16.6Z" fill="#212121"/>
<rect x="40.6191" y="3.7998" width="4" height="1.6" rx="0.8" fill="#212121"/>
<rect x="40.6191" y="1" width="4" height="1.6" rx="0.8" fill="#212121"/>
<path d="M24.691 8.16404C24.691 7.74342 25.032 7.40244 25.4526 7.40244V7.40244C25.8732 7.40244 26.2142 7.74342 26.2142 8.16404V9.86179C26.2142 13.8434 23.762 16.5611 20.2856 17.8059C19.9411 17.9292 19.5621 17.7832 19.3701 17.4717V17.4717C19.086 17.0109 19.3283 16.4069 19.8344 16.2149C22.7275 15.1174 24.691 12.8492 24.691 9.86179V8.16404ZM25.027 8.15284C25.027 7.7384 25.363 7.40244 25.7774 7.40244V7.40244C26.1918 7.40244 26.5278 7.7384 26.5278 8.15284V9.86179C26.5278 12.8479 28.5076 15.1154 31.3863 16.2135C31.8917 16.4063 32.1334 17.0101 31.8495 17.4705V17.4705C31.657 17.7826 31.2772 17.9286 30.9323 17.8043C27.4772 16.5589 25.027 13.8418 25.027 9.86179V8.15284ZM19.3598 7.74898C19.3598 7.33533 19.6951 7 20.1088 7H31.1324C31.5461 7 31.8814 7.33533 31.8814 7.74898V7.74898C31.8814 8.16264 31.5461 8.49797 31.1324 8.49797H20.1088C19.6951 8.49797 19.3598 8.16264 19.3598 7.74898V7.74898Z" fill="#212121"/>
<path fill-rule="evenodd" clip-rule="evenodd" d="M8.9999 18.2C12.0927 18.2 14.5999 15.6928 14.5999 12.6C14.5999 9.50721 12.0927 7 8.9999 7C5.90711 7 3.3999 9.50721 3.3999 12.6C3.3999 15.6928 5.90711 18.2 8.9999 18.2ZM8.99976 16.6C11.2089 16.6 12.9998 14.8091 12.9998 12.6C12.9998 10.3909 11.2089 8.60001 8.99976 8.60001C6.79062 8.60001 4.99976 10.3909 4.99976 12.6C4.99976 14.8091 6.79062 16.6 8.99976 16.6Z" fill="#212121"/>
</svg>
