<svg width="52" height="25" viewBox="0 0 52 25" fill="none" xmlns="http://www.w3.org/2000/svg">
<path fill-rule="evenodd" clip-rule="evenodd" d="M44.6001 18.2C47.6929 18.2 50.2001 15.6928 50.2001 12.6C50.2001 9.50721 47.6929 7 44.6001 7C41.5073 7 39.0001 9.50721 39.0001 12.6C39.0001 15.6928 41.5073 18.2 44.6001 18.2ZM44.5999 16.6C46.8091 16.6 48.5999 14.8091 48.5999 12.6C48.5999 10.3909 46.8091 8.60001 44.5999 8.60001C42.3908 8.60001 40.5999 10.3909 40.5999 12.6C40.5999 14.8091 42.3908 16.6 44.5999 16.6Z" fill="#212121"/>
<path d="M42.6192 4.59999C42.6192 4.15816 42.9774 3.79999 43.4192 3.79999H45.8192C46.2611 3.79999 46.6192 4.15816 46.6192 4.59999C46.6192 5.04182 46.2611 5.39999 45.8192 5.39999H43.4192C42.9774 5.39999 42.6192 5.04182 42.6192 4.59999Z" fill="#212121"/>
<path d="M42.6192 1.8C42.6192 1.35817 42.9774 1 43.4192 1H45.8192C46.2611 1 46.6192 1.35817 46.6192 1.8C46.6192 2.24183 46.2611 2.6 45.8192 2.6H43.4192C42.9774 2.6 42.6192 2.24183 42.6192 1.8Z" fill="#212121"/>
<path d="M24.6913 8.16404C24.6913 7.74342 25.0323 7.40244 25.4529 7.40244C25.8735 7.40244 26.2145 7.74342 26.2145 8.16404V9.86179C26.2145 13.8434 23.7623 16.5611 20.2859 17.8059C19.9414 17.9292 19.5624 17.7832 19.3703 17.4717C19.0863 17.0109 19.3286 16.4069 19.8347 16.2149C22.7278 15.1174 24.6913 12.8492 24.6913 9.86179V8.16404ZM25.0273 8.15284C25.0273 7.7384 25.3633 7.40244 25.7777 7.40244C26.1921 7.40244 26.5281 7.7384 26.5281 8.15284V9.86179C26.5281 12.8479 28.5079 15.1154 31.3866 16.2135C31.892 16.4063 32.1336 17.0101 31.8497 17.4705C31.6573 17.7826 31.2775 17.9286 30.9326 17.8043C27.4775 16.5589 25.0273 13.8418 25.0273 9.86179V8.15284ZM19.3601 7.74898C19.3601 7.33533 19.6954 7 20.1091 7H31.1327C31.5464 7 31.8817 7.33533 31.8817 7.74898C31.8817 8.16264 31.5464 8.49797 31.1327 8.49797H20.1091C19.6954 8.49797 19.3601 8.16264 19.3601 7.74898Z" fill="#212121"/>
<path fill-rule="evenodd" clip-rule="evenodd" d="M7.00015 18.2C10.0929 18.2 12.6001 15.6928 12.6001 12.6C12.6001 9.50721 10.0929 7 7.00015 7C3.90735 7 1.40015 9.50721 1.40015 12.6C1.40015 15.6928 3.90735 18.2 7.00015 18.2ZM7 16.6C9.20914 16.6 11 14.8091 11 12.6C11 10.3909 9.20914 8.60001 7 8.60001C4.79086 8.60001 3 10.3909 3 12.6C3 14.8091 4.79086 16.6 7 16.6Z" fill="#212121"/>
</svg>
