<svg width="52" height="25" viewBox="0 0 52 25" fill="none" xmlns="http://www.w3.org/2000/svg">
<path fill-rule="evenodd" clip-rule="evenodd" d="M40.6 18.2C43.6928 18.2 46.2 15.6928 46.2 12.6C46.2 9.50721 43.6928 7 40.6 7C37.5072 7 35 9.50721 35 12.6C35 15.6928 37.5072 18.2 40.6 18.2ZM40.5999 16.6C42.809 16.6 44.5999 14.8091 44.5999 12.6C44.5999 10.3909 42.809 8.60001 40.5999 8.60001C38.3907 8.60001 36.5999 10.3909 36.5999 12.6C36.5999 14.8091 38.3907 16.6 40.5999 16.6Z" fill="#212121"/>
<rect x="38.6191" y="3.7998" width="4" height="1.6" rx="0.8" fill="#212121"/>
<rect x="38.6191" y="1" width="4" height="1.6" rx="0.8" fill="#212121"/>
<path d="M24.8396 8.20366C24.8396 7.78672 25.1776 7.44872 25.5946 7.44872V7.44872C26.0115 7.44872 26.3495 7.78672 26.3495 8.20366V9.88655C26.3495 13.8333 23.9188 16.5272 20.4728 17.7611C20.1313 17.8834 19.7556 17.7386 19.5653 17.4298V17.4298C19.2837 16.9731 19.5239 16.3744 20.0255 16.1841C22.8933 15.0961 24.8396 12.8478 24.8396 9.88655V8.20366ZM25.1727 8.19255C25.1727 7.78175 25.5057 7.44872 25.9165 7.44872V7.44872C26.3273 7.44872 26.6604 7.78175 26.6604 8.19255V9.88655C26.6604 12.8465 28.6228 15.0942 31.4763 16.1827C31.9773 16.3738 32.2168 16.9722 31.9354 17.4287V17.4287C31.7447 17.738 31.3682 17.8828 31.0263 17.7596C27.6014 16.525 25.1727 13.8317 25.1727 9.88655V8.19255ZM19.5551 7.79223C19.5551 7.3822 19.8875 7.0498 20.2975 7.0498H31.2247C31.6347 7.0498 31.9671 7.3822 31.9671 7.79223V7.79223C31.9671 8.20227 31.6347 8.53466 31.2247 8.53466H20.2975C19.8875 8.53466 19.5551 8.20227 19.5551 7.79223V7.79223Z" fill="#212121"/>
<path fill-rule="evenodd" clip-rule="evenodd" d="M10.9999 18.2C14.0927 18.2 16.5999 15.6928 16.5999 12.6C16.5999 9.50721 14.0927 7 10.9999 7C7.90711 7 5.3999 9.50721 5.3999 12.6C5.3999 15.6928 7.90711 18.2 10.9999 18.2ZM10.9998 16.6C13.2089 16.6 14.9998 14.8091 14.9998 12.6C14.9998 10.3909 13.2089 8.60001 10.9998 8.60001C8.79062 8.60001 6.99976 10.3909 6.99976 12.6C6.99976 14.8091 8.79062 16.6 10.9998 16.6Z" fill="#212121"/>
</svg>
